<svg width="127" height="26" viewBox="0 0 127 26" fill="none" xmlns="http://www.w3.org/2000/svg">
<path d="M18.375 17.7812C18.0938 20.1875 17.2031 22.0469 15.7031 23.3594C14.2135 24.6615 12.2292 25.3125 9.75 25.3125C7.0625 25.3125 4.90625 24.349 3.28125 22.4219C1.66667 20.4948 0.859375 17.9167 0.859375 14.6875V12.5C0.859375 10.3854 1.23438 8.52604 1.98438 6.92188C2.74479 5.31771 3.81771 4.08854 5.20312 3.23438C6.58854 2.36979 8.19271 1.9375 10.0156 1.9375C12.4323 1.9375 14.3698 2.61458 15.8281 3.96875C17.2865 5.3125 18.1354 7.17708 18.375 9.5625H15.3594C15.099 7.75 14.5312 6.4375 13.6562 5.625C12.7917 4.8125 11.5781 4.40625 10.0156 4.40625C8.09896 4.40625 6.59375 5.11458 5.5 6.53125C4.41667 7.94792 3.875 9.96354 3.875 12.5781V14.7812C3.875 17.25 4.39062 19.2135 5.42188 20.6719C6.45312 22.1302 7.89583 22.8594 9.75 22.8594C11.4167 22.8594 12.6927 22.4844 13.5781 21.7344C14.474 20.974 15.0677 19.6562 15.3594 17.7812H18.375ZM21.2656 16.3906C21.2656 14.7344 21.5885 13.2448 22.2344 11.9219C22.8906 10.599 23.7969 9.57812 24.9531 8.85938C26.1198 8.14062 27.4479 7.78125 28.9375 7.78125C31.2396 7.78125 33.099 8.57812 34.5156 10.1719C35.9427 11.7656 36.6562 13.8854 36.6562 16.5312V16.7344C36.6562 18.3802 36.3385 19.8594 35.7031 21.1719C35.0781 22.474 34.1771 23.4896 33 24.2188C31.8333 24.9479 30.4896 25.3125 28.9688 25.3125C26.6771 25.3125 24.8177 24.5156 23.3906 22.9219C21.974 21.3281 21.2656 19.2188 21.2656 16.5938V16.3906ZM24.1719 16.7344C24.1719 18.6094 24.6042 20.1146 25.4688 21.25C26.3438 22.3854 27.5104 22.9531 28.9688 22.9531C30.4375 22.9531 31.6042 22.3802 32.4688 21.2344C33.3333 20.0781 33.7656 18.4635 33.7656 16.3906C33.7656 14.5365 33.3229 13.0365 32.4375 11.8906C31.5625 10.7344 30.3958 10.1562 28.9375 10.1562C27.5104 10.1562 26.3594 10.724 25.4844 11.8594C24.6094 12.9948 24.1719 14.6198 24.1719 16.7344ZM43.4219 25H40.5312V1H43.4219V25ZM47.2969 16.3906C47.2969 14.7344 47.6198 13.2448 48.2656 11.9219C48.9219 10.599 49.8281 9.57812 50.9844 8.85938C52.151 8.14062 53.4792 7.78125 54.9688 7.78125C57.2708 7.78125 59.1302 8.57812 60.5469 10.1719C61.974 11.7656 62.6875 13.8854 62.6875 16.5312V16.7344C62.6875 18.3802 62.3698 19.8594 61.7344 21.1719C61.1094 22.474 60.2083 23.4896 59.0312 24.2188C57.8646 24.9479 56.5208 25.3125 55 25.3125C52.7083 25.3125 50.849 24.5156 49.4219 22.9219C48.0052 21.3281 47.2969 19.2188 47.2969 16.5938V16.3906ZM50.2031 16.7344C50.2031 18.6094 50.6354 20.1146 51.5 21.25C52.375 22.3854 53.5417 22.9531 55 22.9531C56.4688 22.9531 57.6354 22.3802 58.5 21.2344C59.3646 20.0781 59.7969 18.4635 59.7969 16.3906C59.7969 14.5365 59.3542 13.0365 58.4688 11.8906C57.5938 10.7344 56.4271 10.1562 54.9688 10.1562C53.5417 10.1562 52.3906 10.724 51.5156 11.8594C50.6406 12.9948 50.2031 14.6198 50.2031 16.7344ZM76.75 23.3281C75.625 24.651 73.974 25.3125 71.7969 25.3125C69.9948 25.3125 68.6198 24.7917 67.6719 23.75C66.7344 22.6979 66.2604 21.1458 66.25 19.0938V8.09375H69.1406V19.0156C69.1406 21.5781 70.1823 22.8594 72.2656 22.8594C74.474 22.8594 75.9427 22.0365 76.6719 20.3906V8.09375H79.5625V25H76.8125L76.75 23.3281ZM92.1406 10.6875C91.7031 10.6146 91.2292 10.5781 90.7188 10.5781C88.8229 10.5781 87.5365 11.3854 86.8594 13V25H83.9688V8.09375H86.7812L86.8281 10.0469C87.776 8.53646 89.1198 7.78125 90.8594 7.78125C91.4219 7.78125 91.849 7.85417 92.1406 8V10.6875ZM96.4844 25V10.3281H93.8125V8.09375H96.4844V6.35938C96.4844 4.54688 96.9688 3.14583 97.9375 2.15625C98.9062 1.16667 100.276 0.671875 102.047 0.671875C102.714 0.671875 103.375 0.760417 104.031 0.9375L103.875 3.28125C103.385 3.1875 102.865 3.14062 102.312 3.14062C101.375 3.14062 100.651 3.41667 100.141 3.96875C99.6302 4.51042 99.375 5.29167 99.375 6.3125V8.09375H102.984V10.3281H99.375V25H96.4844ZM116.625 23.3281C115.5 24.651 113.849 25.3125 111.672 25.3125C109.87 25.3125 108.495 24.7917 107.547 23.75C106.609 22.6979 106.135 21.1458 106.125 19.0938V8.09375H109.016V19.0156C109.016 21.5781 110.057 22.8594 112.141 22.8594C114.349 22.8594 115.818 22.0365 116.547 20.3906V8.09375H119.438V25H116.688L116.625 23.3281ZM126.984 25H124.094V1H126.984V25Z" fill="white" fill-opacity="0.94"/>
</svg>
